<?xml version="1.0" encoding="UTF-8" standalone="no"?>
<svg
   id="svg32"
   version="1.1"
   viewBox="0 0 228.66 39.08"
   xmlns:xlink="http://www.w3.org/1999/xlink"
   xmlns="http://www.w3.org/2000/svg"
   xmlns:svg="http://www.w3.org/2000/svg"
   xmlns:rdf="http://www.w3.org/1999/02/22-rdf-syntax-ns#"
   xmlns:cc="http://creativecommons.org/ns#"
   xmlns:dc="http://purl.org/dc/elements/1.1/">
  <title
     id="title4781">Miciah Bar M</title>
  <metadata
     id="metadata38">
    <rdf:RDF>
      <cc:Work
         rdf:about="">
        <dc:format>image/svg+xml</dc:format>
        <dc:type
           rdf:resource="http://purl.org/dc/dcmitype/StillImage" />
        <dc:title>Miciah Bar M</dc:title>
        <cc:license
           rdf:resource="http://creativecommons.org/licenses/by/4.0/" />
        <dc:date>3/2/21</dc:date>
        <dc:creator>
          <cc:Agent>
            <dc:title>Miciah martin</dc:title>
          </cc:Agent>
        </dc:creator>
        <dc:rights>
          <cc:Agent>
            <dc:title>Copyright</dc:title>
          </cc:Agent>
        </dc:rights>
        <dc:source>MNAV1</dc:source>
        <dc:subject>
          <rdf:Bag>
            <rdf:li>Miciah</rdf:li>
            <rdf:li>Martin</rdf:li>
            <rdf:li>Navigation</rdf:li>
            <rdf:li>Logo</rdf:li>
          </rdf:Bag>
        </dc:subject>
        <dc:language>XML,PNG,SVG,HTML</dc:language>
        <dc:coverage>Global</dc:coverage>
        <dc:contributor>
          <cc:Agent>
            <dc:title>Jesus and Miciah martin</dc:title>
          </cc:Agent>
        </dc:contributor>
        <dc:description>A Logo typically used in navigation elements</dc:description>
      </cc:Work>
      <cc:License
         rdf:about="http://creativecommons.org/licenses/by/4.0/">
        <cc:permits
           rdf:resource="http://creativecommons.org/ns#Reproduction" />
        <cc:permits
           rdf:resource="http://creativecommons.org/ns#Distribution" />
        <cc:requires
           rdf:resource="http://creativecommons.org/ns#Notice" />
        <cc:requires
           rdf:resource="http://creativecommons.org/ns#Attribution" />
        <cc:permits
           rdf:resource="http://creativecommons.org/ns#DerivativeWorks" />
      </cc:License>
    </rdf:RDF>
  </metadata>
  <defs
     id="defs36">
    <color-profile
       name="Agfa-:-Swop-Standard"
       xlink:href="C:\WINDOWS\system32\spool\drivers\color\RSWOP.icm"
       id="color-profile1036" />
    <color-profile
       name="Epson-IJ-Printer-07"
       xlink:href="C:\WINDOWS\system32\spool\drivers\color\Epson IJ Printer 07.icc"
       id="color-profile1038" />
    <color-profile
       name="sRGB-IEC61966-2.1"
       xlink:href="C:\WINDOWS\system32\spool\drivers\color\sRGB Color Space Profile.icm"
       id="color-profile1040" />
  </defs>
  <style
     id="style2">.cls-1{fill:#fed136;}</style>
  <text
     id="text4801"
     y="150.7687225341797"
     x="258.8461303710938"
     style="font-style:normal;font-variant:normal;font-weight:normal;font-stretch:normal;font-size:64px;line-height:0;font-family:'Kaushan Script';-inkscape-font-specification:'Kaushan Script';letter-spacing:0px;word-spacing:0px;writing-mode:lr-tb;fill:#000000;fill-opacity:1;stroke:none"
     xml:space="preserve"><tspan
       y="166.5812683105469"
       x="258.8461303710938"
       id="tspan4799" /></text>
  <g
     style="stroke-width:2.29314;fill:#ccff00"
     transform="matrix(0.43608312,0,0,0.43608312,123.11959,70.255155)"
     id="g9152">
    <path
       id="path8630"
       d="m -20.739002,-139.04699 -4.185547,24.17773 h 10.195312 l 1.458985,-11.58398 1.814453,11.58398 h 7.9199216 l -3.328125,-24.17773 z m 33.46875,0 -11.681641,24.17773 h 8.6445313 l 5.2246097,-10.39648 -2.337891,10.39648 h 10.214844 l 4.185547,-24.17773 z m 34.5,0 -12.802735,24.17773 h 10.585938 l 5.373047,-11.33398 1.445312,11.33398 h 9.927735 l -4.466797,-24.17773 z m 30.03125,0 -4.185547,24.17773 h 30.533199 c 0.95025,-0.7507 1.78712,-1.57743 2.4961,-2.49023 1.66666,-2.16667 2.61458,-4.89583 2.84375,-8.1875 0.29166,-4.16667 -0.95834,-7.44792 -3.75,-9.84375 -2.77084,-2.41667 -6.729169,-3.625 -11.875002,-3.625 z m 37.156252,0 -1.5,8.46875 h 13.03125 l -2.73047,15.70898 h 10.70117 l 2.7168,-15.70898 h 13.25 l 1.46875,-8.46875 z m 42.46875,0 -4.20117,24.17773 h 10.67187 l 4.18555,-24.17773 z m 18.25,0 -4.18555,24.17773 h 10.71094 l 1.28711,-7.39648 2.80078,7.39648 h 8.95312 l -9.1289,-24.17773 z m 26.25,0 -4.1836,24.17773 h 10.66993 l 4.20117,-24.17773 z m -114.875002,8.46875 7.25,0.0312 c 2.541666,0.125 4.020833,1.34375 4.4375,3.65625 0.229166,1.35417 0.07292,2.76042 -0.46875,4.21875 -0.541667,1.4375 -1.447917,2.57292 -2.71875,3.40625 -1.25,0.83333 -2.729167,1.25 -4.4375,1.25 l -6.25,-0.0625 z m -111.695313,17.21875 -3.429687,19.812499 h 10.6875 l 1.78125,-10.093749 1.224609,-9.71875 z m 13.964844,0 3.1054686,19.812499 h 7.09375 L 8.9348258,-113.35949 H 0.31763826 l -2.83789066,5.875 -0.8085937,-5.875 z m 23.458984,0 -1.947265,8.65625 -1.9375004,11.156249 H 19.104748 l 3.429687,-19.812499 z m 21.388672,0 -10.492187,19.812499 h 11.78125 l 4.03125,-8.499999 h 14.53125 l 1.09375,8.499999 h 11.125 L 62.038341,-113.35949 H 52.022716 l 0.363282,2.84375 h -9.4375 l 1.347656,-2.84375 z m 39.1875,0 -3.429687,19.812499 h 10.6875 l 2.8125,-16.062499 h 5.9375 l 5,16.062499 h 11.406252 v -0.53125 l -6.125002,-18.187499 c 0.796958,-0.33207 1.543232,-0.69847 2.246092,-1.09375 z m 50.138675,0 -3.44336,19.812499 h 10.71875 l 3.42773,-19.812499 z m 29.46875,0 -3.44336,19.812499 h 10.6875 l 3.42969,-19.812499 z m 18.26758,0 -3.42969,19.812499 h 10.6875 l 3.44922,-19.812499 z m 15.63085,0 7.50196,19.812499 h 10.34375 l 3.44336,-19.812499 h -10.66797 l -0.52539,3.03125 -1.14453,-3.03125 z"
       style="font-style:italic;font-variant:normal;font-weight:900;font-stretch:normal;font-size:64px;line-height:0;font-family:Roboto;-inkscape-font-specification:'Roboto Heavy Italic';letter-spacing:0px;word-spacing:0px;writing-mode:lr-tb;fill:#ccff00;fill-opacity:1;stroke:none;stroke-width:2.29314" />
    <g
       aria-label="MICIAH"
       transform="scale(1.0315299,0.96943381)"
       style="font-style:italic;font-variant:normal;font-weight:normal;font-stretch:normal;font-size:66.91px;line-height:0;font-family:'Franklin Gothic Book';-inkscape-font-specification:'Franklin Gothic Book, Italic';letter-spacing:0px;word-spacing:0px;writing-mode:lr-tb;fill:#ccff00;fill-opacity:1;stroke:none;stroke-width:2.29314"
       id="text8634">
      <path
         d="m -201.28357,-97.4869 h -5.42337 l 6.86089,-40.93667 -21.43213,40.93667 h -4.11653 l -7.97171,-40.28325 -6.76288,40.28325 h -4.54126 l 7.44897,-44.59581 h 8.26575 l 7.28561,36.52609 19.07982,-36.52609 h 8.78848 z"
         style="fill:#ccff00;stroke-width:2.29314"
         id="path9131" />
      <path
         d="m -177.13976,-142.08271 -7.44897,44.59581 h -5.45604 l 7.44897,-44.59581 z"
         style="fill:#ccff00;stroke-width:2.29314"
         id="path9133" />
      <path
         d="m -136.82384,-128.36092 -4.86797,1.20882 q -0.75143,-6.50151 -3.65914,-9.01717 -2.90771,-2.54833 -6.76288,-2.54833 -4.47592,0 -7.71034,3.07106 -3.20175,3.07107 -5.16201,9.14786 -1.96025,6.07679 -1.96025,11.36948 0,6.66487 2.90771,10.29134 2.94038,3.5938 7.74301,3.5938 7.61232,0 12.0229,-10.48736 l 4.54126,1.69889 q -4.99865,13.297061 -16.69484,13.297061 -7.80836,0 -12.05558,-5.488711 -4.21454,-5.48872 -4.21454,-13.98316 0,-10.16066 5.68474,-18.55708 5.71741,-8.4291 14.73458,-8.4291 5.81543,0 10.16066,3.52846 4.34523,3.52846 5.29269,11.30414 z"
         style="fill:#ccff00;stroke-width:2.29314"
         id="path9135" />
      <path
         d="m -121.99124,-142.08271 -7.44897,44.59581 h -5.45605 l 7.44897,-44.59581 z"
         style="fill:#ccff00;stroke-width:2.29314"
         id="path9137" />
      <path
         d="m -95.23376,-110.55527 h -16.27012 l -6.4035,13.06837 h -5.06399 l 21.85684,-44.59581 h 6.174808 l 7.77568,44.59581 h -5.750083 z m -0.653419,-4.47592 -3.430447,-20.48466 -10.062644,20.48466 z"
         style="fill:#ccff00;stroke-width:2.29314"
         id="path9139" />
      <path
         d="m -49.690487,-118.59232 h -21.856847 l -3.52846,21.10542 h -5.456044 l 7.44897,-44.59581 h 5.456044 l -3.136408,18.75311 h 21.856847 l 3.136408,-18.75311 h 5.456045 l -7.481642,44.59581 h -5.423373 z"
         style="fill:#ccff00;stroke-width:2.29314"
         id="path9141" />
    </g>
  </g>
</svg>
